<svg width="24" height="24" viewBox="0 0 24 24" fill="none" xmlns="http://www.w3.org/2000/svg">
<path d="M11.9994 0C5.38239 0 0 5.38328 0 12.0001C0 18.617 5.38239 24 11.9994 24C18.6167 24 24 18.6168 24 12.0001C24 5.38328 18.6167 0 11.9994 0ZM11.9994 21.4595C6.78362 21.4595 2.54073 17.2158 2.54073 12.0001C2.54073 6.78451 6.78367 2.54059 11.9994 2.54059C17.2154 2.54059 21.4593 6.78451 21.4593 12.0001C21.4593 17.2158 17.2154 21.4595 11.9994 21.4595Z" fill="#413DFB"/>
<path d="M13.2177 10.8347H10.7814C10.3726 10.8347 10.0408 11.1666 10.0408 11.5747V18.7977C10.0408 19.2066 10.3726 19.5378 10.7814 19.5378H13.2177C13.6265 19.5378 13.9583 19.2064 13.9583 18.7977V11.5748C13.9583 11.1666 13.6265 10.8347 13.2177 10.8347Z" fill="#413DFB"/>
<path d="M11.9994 4.4624C10.8012 4.4624 9.82922 5.43426 9.82922 6.63255C9.82922 7.83099 10.8011 8.8029 11.9994 8.8029C13.198 8.8029 14.17 7.83104 14.17 6.63255C14.1699 5.43426 13.198 4.4624 11.9994 4.4624Z" fill="#413DFB"/>
</svg>
