<svg width="17" height="16" viewBox="0 0 17 16" fill="none" xmlns="http://www.w3.org/2000/svg">
<path fill-rule="evenodd" clip-rule="evenodd" d="M1.3613 2.74828C1.59438 2.36236 3.05225 0.616342 3.96868 0.658717C4.24262 0.681419 4.48478 0.847138 4.68153 1.03934C5.13331 1.48051 6.4266 3.14905 6.5 3.50017C6.67859 4.3613 5.18595 5.13215 5.5 6.0001C6.30064 7.95922 8.04002 9.70026 10 10.5001C10.8672 10.8141 11.6388 9.3209 12.5 9.50024C12.8504 9.57365 14.5588 11.0485 15 11.5002C15.1915 11.6962 15.3579 11.9391 15.3806 12.2131C15.4147 13.1779 13.5427 14.472 13.2521 14.6385C12.5665 15.1288 11.672 15.1205 10.5815 14.6135C7.53864 13.3475 2.67577 8.57647 1.38627 5.41871C0.892869 4.33435 0.858816 3.43386 1.3613 2.74828Z" stroke="#369BFF" stroke-width="1.3" stroke-linecap="round" stroke-linejoin="round"/>
</svg>
