<svg width="22" height="24" viewBox="0 0 22 24" fill="none" xmlns="http://www.w3.org/2000/svg">
<path d="M19.16 13.92L17.4 10.4C17.2488 10.1542 17.037 9.95151 16.7848 9.81139C16.5325 9.67127 16.2485 9.59847 15.96 9.6H6.03998C5.75146 9.59847 5.46741 9.67127 5.21519 9.81139C4.96298 9.95151 4.7511 10.1542 4.59998 10.4L2.83998 13.92L0.855976 15.7632C0.775349 15.838 0.711004 15.9286 0.666957 16.0293C0.622911 16.1301 0.600109 16.2388 0.599976 16.3488V23.2C0.599976 23.4122 0.684261 23.6157 0.83429 23.7657C0.984319 23.9157 1.1878 24 1.39998 24H4.59998C4.91998 24 5.39998 23.68 5.39998 23.36V22.4H16.6V23.2C16.6 23.52 16.92 24 17.24 24H20.6C20.8122 24 21.0156 23.9157 21.1657 23.7657C21.3157 23.6157 21.4 23.4122 21.4 23.2V16.3488C21.3998 16.2388 21.377 16.1301 21.333 16.0293C21.2889 15.9286 21.2246 15.838 21.144 15.7632L19.16 13.92ZM6.19998 11.2H15.8L17.4 14.4H4.59998L6.19998 11.2ZM6.99998 18.56C6.99998 18.88 6.51998 19.2 6.19998 19.2H2.83998C2.51998 19.2 2.19998 18.72 2.19998 18.4V16.64C2.35998 16.16 2.67998 15.84 3.15998 16L6.35998 16.64C6.67998 16.64 6.99998 17.12 6.99998 17.44V18.56ZM19.8 18.4C19.8 18.72 19.48 19.2 19.16 19.2H15.8C15.48 19.2 15 18.88 15 18.56V17.44C15 17.12 15.32 16.64 15.64 16.64L18.84 16C19.32 15.84 19.64 16.16 19.8 16.64V18.4ZM11.8 6.4H10.2L8.59998 0H13.4L11.8 6.4ZM0.759976 2.88L4.91998 0.48L6.67998 6.88L5.39998 7.52L0.759976 2.88ZM17.08 0.48L21.24 2.88L16.6 7.68L15.16 6.88L17.08 0.48Z" fill="#1976D2"/>
</svg>
