<svg width="21" height="22" viewBox="0 0 21 22" fill="none" xmlns="http://www.w3.org/2000/svg">
<path fill-rule="evenodd" clip-rule="evenodd" d="M3.67975 5.51802C5.28356 3.52521 7.74286 2.25 10.5 2.25C10.9258 2.25 11.3444 2.28041 11.7539 2.33918L12.498 3.82724L9.6502 6.67505L6.5877 7.11255L5.08677 8.61348L3.67975 5.51802ZM2.56795 7.30113C2.04314 8.42465 1.75 9.67805 1.75 11C1.75 15.3102 4.86655 18.8926 8.9691 19.6165L9.44872 18.8394L6.78382 15.1382L8.60312 12.7799L7.73813 12.3474L4.59698 12.8709L3.9826 10.4134L2.56795 7.30113ZM5.78152 10.3936L5.90289 10.8791L8.01176 10.5276L9.76803 11.4058L12.9295 10.9666L18.6135 14.2824C19.024 13.2688 19.25 12.1608 19.25 11C19.25 7.42684 17.1082 4.35392 14.0385 2.99499L14.6273 4.17278L10.4751 8.32496L7.41266 8.76245L5.78152 10.3936ZM17.7962 15.8316C16.307 18.0761 13.8097 19.5937 10.9502 19.7386L11.5513 18.7647L8.96618 15.1743L10.5995 13.0571L12.5706 12.7834L17.7962 15.8316ZM10.5 0.5C4.70101 0.5 0 5.20101 0 11C0 16.799 4.70101 21.5 10.5 21.5C16.299 21.5 21 16.799 21 11C21 5.20101 16.299 0.5 10.5 0.5Z" fill="#666666"/>
</svg>
