<svg width="18" height="21" viewBox="0 0 18 21" fill="none" xmlns="http://www.w3.org/2000/svg">
<path d="M13.2769 13.8373C13.0414 14.586 12.6286 15.2667 12.0737 15.8216C11.5187 16.3766 10.838 16.7893 10.0894 17.0248C9.98009 17.0588 9.86632 17.0762 9.75187 17.0764C9.48295 17.0766 9.22285 16.9804 9.01871 16.8054C8.81457 16.6303 8.67989 16.3879 8.63909 16.1221C8.59828 15.8563 8.65404 15.5847 8.79627 15.3564C8.93849 15.1282 9.15778 14.9584 9.41438 14.878C9.81783 14.7512 10.1847 14.5288 10.4837 14.2298C10.7828 13.9308 11.0051 13.5639 11.1319 13.1605C11.1762 13.0195 11.2478 12.8886 11.3427 12.7754C11.4376 12.6621 11.5539 12.5686 11.6849 12.5003C11.9495 12.3623 12.2581 12.335 12.5428 12.4245C12.6838 12.4688 12.8146 12.5405 12.9279 12.6354C13.0412 12.7303 13.1347 12.8466 13.203 12.9776C13.2713 13.1086 13.3132 13.2518 13.3262 13.399C13.3392 13.5462 13.3231 13.6945 13.2787 13.8355L13.2769 13.8373ZM17.25 12.3748C17.25 14.6623 16.3413 16.8561 14.7238 18.4736C13.1063 20.0911 10.9125 20.9998 8.625 20.9998C6.33751 20.9998 4.14371 20.0911 2.5262 18.4736C0.908703 16.8561 0 14.6623 0 12.3748C0 9.6739 1.05656 6.92046 3.13875 4.19233C3.2352 4.06592 3.35735 3.96139 3.49715 3.88563C3.63695 3.80987 3.79122 3.76461 3.94979 3.75283C4.10836 3.74105 4.26762 3.76301 4.41708 3.81728C4.56654 3.87154 4.7028 3.95687 4.81687 4.06765L6.66281 5.85921L8.53125 0.739521C8.59303 0.570129 8.69462 0.418068 8.82747 0.296152C8.96031 0.174235 9.12051 0.0860348 9.29457 0.0389818C9.46863 -0.00807114 9.65144 -0.0125979 9.82762 0.025783C10.0038 0.0641639 10.1682 0.144328 10.3069 0.259521C12.3938 1.99202 17.25 6.64202 17.25 12.3748ZM15 12.3748C15 8.46452 12.1303 5.02577 10.0763 3.0664L8.18156 8.26015C8.11726 8.43645 8.00987 8.59386 7.86918 8.71805C7.72849 8.84224 7.55897 8.92926 7.37605 8.97119C7.19314 9.01313 7.00264 9.00863 6.8219 8.95813C6.64116 8.90762 6.47593 8.8127 6.34125 8.68202L4.19156 6.59608C2.90625 8.56671 2.25 10.5055 2.25 12.3748C2.25 14.0656 2.92165 15.6871 4.11719 16.8826C5.31274 18.0782 6.93424 18.7498 8.625 18.7498C10.3158 18.7498 11.9373 18.0782 13.1328 16.8826C14.3284 15.6871 15 14.0656 15 12.3748Z" fill="#1976D2"/>
</svg>
