<svg width="19" height="14" viewBox="0 0 19 14" fill="none" xmlns="http://www.w3.org/2000/svg">
<path d="M16.3333 14H1.81481C1.33433 13.9973 0.874316 13.8052 0.534551 13.4654C0.194797 13.1257 0.00272741 12.6656 0 12.1852V1.81481C0.00272741 1.33433 0.194797 0.874316 0.534551 0.534551C0.874316 0.194797 1.33433 0.00272741 1.81481 0H16.3333C16.8138 0.00272741 17.2738 0.194797 17.6136 0.534551C17.9534 0.874316 18.1455 1.33433 18.1481 1.81481V12.1852C18.1455 12.6656 17.9534 13.1257 17.6136 13.4654C17.2738 13.8052 16.8138 13.9973 16.3333 14ZM1.81481 1.55556C1.74606 1.55556 1.68011 1.58287 1.63149 1.63149C1.58287 1.68011 1.55556 1.74606 1.55556 1.81481V12.1852C1.55556 12.2539 1.58287 12.3199 1.63149 12.3685C1.68011 12.4172 1.74606 12.4444 1.81481 12.4444H16.3333C16.4021 12.4444 16.468 12.4172 16.5167 12.3685C16.5653 12.3199 16.5926 12.2539 16.5926 12.1852V1.81481C16.5926 1.74606 16.5653 1.68011 16.5167 1.63149C16.468 1.58287 16.4021 1.55556 16.3333 1.55556H1.81481Z" fill="#4175DB"/>
<path d="M5.96275 6.7408C5.55253 6.7408 5.15153 6.61915 4.81045 6.39121C4.46937 6.16338 4.20354 5.83941 4.04655 5.46047C3.88957 5.08144 3.8485 4.66442 3.92852 4.26209C4.00855 3.85977 4.20609 3.4902 4.49616 3.20014C4.78622 2.91007 5.15579 2.71253 5.55811 2.6325C5.96044 2.55248 6.37748 2.59355 6.75646 2.75053C7.13543 2.90752 7.4594 3.17335 7.68723 3.51443C7.91517 3.85551 8.03682 4.25651 8.03682 4.66672C8.03682 5.21677 7.81832 5.74431 7.42932 6.1333C7.04033 6.52229 6.51282 6.7408 5.96275 6.7408ZM5.96275 4.14821C5.86019 4.14821 5.75994 4.17862 5.67468 4.2356C5.5894 4.29257 5.52295 4.37355 5.4837 4.4683C5.44446 4.56304 5.43419 4.66731 5.45419 4.76789C5.4742 4.86847 5.52358 4.96083 5.5961 5.03342C5.66861 5.10591 5.761 5.15527 5.86159 5.17529C5.96217 5.1953 6.06643 5.18504 6.16117 5.14573C6.25593 5.10653 6.33691 5.04006 6.39388 4.95481C6.45086 4.86953 6.48126 4.76928 6.48126 4.66672C6.48126 4.5292 6.42663 4.39732 6.32939 4.30008C6.23216 4.20284 6.10027 4.14821 5.96275 4.14821Z" fill="#4175DB"/>
<path d="M9.07398 10.8889C8.86854 10.8862 8.67223 10.8035 8.52694 10.6582C8.38165 10.5129 8.29889 10.3166 8.2962 10.1111C8.2962 9.40594 8.1199 8.81483 5.96286 8.81483C3.80583 8.81483 3.62953 9.40594 3.62953 10.1111C3.62953 10.3174 3.54758 10.5153 3.40172 10.6611C3.25587 10.807 3.05803 10.8889 2.85175 10.8889C2.64548 10.8889 2.44764 10.807 2.30178 10.6611C2.15592 10.5153 2.07397 10.3174 2.07397 10.1111C2.07397 7.25928 4.99842 7.25928 5.96286 7.25928C6.92731 7.25928 9.85175 7.25928 9.85175 10.1111C9.84906 10.3166 9.7663 10.5129 9.62101 10.6582C9.47572 10.8035 9.27941 10.8862 9.07398 10.8889Z" fill="#4175DB"/>
<path d="M14.259 5.70375H11.1479C10.9416 5.70375 10.7438 5.62182 10.598 5.47591C10.452 5.3301 10.3701 5.13224 10.3701 4.92597C10.3701 4.71969 10.452 4.52186 10.598 4.376C10.7438 4.23014 10.9416 4.14819 11.1479 4.14819H14.259C14.4653 4.14819 14.6631 4.23014 14.8089 4.376C14.9549 4.52186 15.0368 4.71969 15.0368 4.92597C15.0368 5.13224 14.9549 5.3301 14.8089 5.47591C14.6631 5.62182 14.4653 5.70375 14.259 5.70375Z" fill="#4175DB"/>
<path d="M13.222 8.81483H11.1479C10.9416 8.81483 10.7438 8.73291 10.598 8.587C10.452 8.44119 10.3701 8.24332 10.3701 8.03706C10.3701 7.83079 10.452 7.63292 10.598 7.48711C10.7438 7.3412 10.9416 7.25928 11.1479 7.25928H13.222C13.4282 7.25928 13.6261 7.3412 13.7719 7.48711C13.9178 7.63292 13.9997 7.83079 13.9997 8.03706C13.9997 8.24332 13.9178 8.44119 13.7719 8.587C13.6261 8.73291 13.4282 8.81483 13.222 8.81483Z" fill="#4175DB"/>
</svg>
