<svg width="24" height="24" viewBox="0 0 24 24" fill="none" xmlns="http://www.w3.org/2000/svg">
<path d="M14.2779 0.312622H9.62239C8.69635 0.312622 7.80824 0.680491 7.15343 1.3353C6.49862 1.99011 6.13075 2.87823 6.13075 3.80427V4.96815H3.80299C2.87694 4.96815 1.98883 5.33602 1.33402 5.99083C0.679209 6.64564 0.31134 7.53375 0.31134 8.45979V20.0986C0.31134 21.0247 0.679209 21.9128 1.33402 22.5676C1.98883 23.2224 2.87694 23.5903 3.80299 23.5903H20.0973C21.0234 23.5903 21.9115 23.2224 22.5663 22.5676C23.2211 21.9128 23.589 21.0247 23.589 20.0986V8.45979C23.589 7.53375 23.2211 6.64564 22.5663 5.99083C21.9115 5.33602 21.0234 4.96815 20.0973 4.96815H17.7696V3.80427C17.7696 2.87823 17.4017 1.99011 16.7469 1.3353C16.0921 0.680491 15.204 0.312622 14.2779 0.312622ZM8.45851 3.80427C8.45851 3.49559 8.58113 3.19955 8.7994 2.98128C9.01767 2.76301 9.31371 2.64039 9.62239 2.64039H14.2779C14.5866 2.64039 14.8826 2.76301 15.1009 2.98128C15.3192 3.19955 15.4418 3.49559 15.4418 3.80427V4.96815H8.45851V3.80427ZM21.2612 8.45979V20.0986C21.2612 20.4073 21.1386 20.7033 20.9203 20.9216C20.702 21.1399 20.406 21.2625 20.0973 21.2625H3.80299C3.4943 21.2625 3.19827 21.1399 2.98 20.9216C2.76173 20.7033 2.6391 20.4073 2.6391 20.0986V8.45979C2.6391 8.15111 2.76173 7.85507 2.98 7.6368C3.19827 7.41853 3.4943 7.29591 3.80299 7.29591H20.0973C20.406 7.29591 20.702 7.41853 20.9203 7.6368C21.1386 7.85507 21.2612 8.15111 21.2612 8.45979ZM13.114 13.1153H15.4418V15.4431H13.114V17.7708H10.7863V15.4431H8.45851V13.1153H10.7863V10.7876H13.114V13.1153Z" fill="#1976D2"/>
</svg>
