<svg width="24" height="25" viewBox="0 0 24 25" fill="none" xmlns="http://www.w3.org/2000/svg">
<path d="M8 12.5H8.01H8ZM12 12.5H12.01H12ZM16 12.5H16.01H16ZM21.0039 12.5C21.0039 17.4706 16.9745 21.5 12.0039 21.5C9.9675 21.5 3.00463 21.5 3.00463 21.5C3.00463 21.5 4.56382 17.7561 3.93982 16.5008C3.34076 15.2956 3.00391 13.9372 3.00391 12.5C3.00391 7.52944 7.03334 3.5 12.0039 3.5C16.9745 3.5 21.0039 7.52944 21.0039 12.5Z" fill="url(#paint0_linear_85_1269)"/>
<path d="M8 12.5H8.01M12 12.5H12.01M16 12.5H16.01M21.0039 12.5C21.0039 17.4706 16.9745 21.5 12.0039 21.5C9.9675 21.5 3.00463 21.5 3.00463 21.5C3.00463 21.5 4.56382 17.7561 3.93982 16.5008C3.34076 15.2956 3.00391 13.9372 3.00391 12.5C3.00391 7.52944 7.03334 3.5 12.0039 3.5C16.9745 3.5 21.0039 7.52944 21.0039 12.5Z" stroke="#666666" stroke-width="2.00704" stroke-linecap="round" stroke-linejoin="round"/>
<defs>
<linearGradient id="paint0_linear_85_1269" x1="12.0039" y1="-7.84783" x2="12.0039" y2="21.5" gradientUnits="userSpaceOnUse">
<stop stop-color="white" stop-opacity="0.7"/>
<stop offset="1" stop-color="white"/>
</linearGradient>
</defs>
</svg>
