<svg width="18" height="19" viewBox="0 0 18 19" fill="none" xmlns="http://www.w3.org/2000/svg">
<g clip-path="url(#clip0_85_1708)">
<path d="M9.00148 18.24L9.00234 18.24C9.3409 18.2322 9.66579 18.1049 9.91955 17.8806C10.1733 17.6564 10.3396 17.3496 10.389 17.0146L10.4059 16.9H10.29H7.66003H7.5442L7.56111 17.0146C7.61188 17.3587 7.78593 17.6727 8.05089 17.8981C8.31584 18.1235 8.65365 18.245 9.00148 18.24Z" fill="#666666" stroke="#666666" stroke-width="0.2"/>
<path d="M16.255 13.915C15.7729 13.4852 15.3507 12.9924 15 12.45C14.6168 11.7014 14.3872 10.8837 14.325 10.045V7.575C14.3228 7.27498 14.2961 6.97565 14.245 6.68C13.8514 6.60167 13.4731 6.45982 13.125 6.26C13.2577 6.68744 13.3251 7.13245 13.325 7.58V10.05C13.3857 11.0731 13.6671 12.071 14.15 12.975C14.4953 13.5219 14.9049 14.0255 15.37 14.475H2.56502C3.03012 14.0255 3.43971 13.5219 3.78502 12.975C4.26792 12.071 4.54937 11.0731 4.61002 10.05V7.575C4.60739 6.99634 4.71893 6.42285 4.93825 5.88736C5.15756 5.35187 5.48035 4.8649 5.88813 4.45433C6.29591 4.04377 6.78067 3.71767 7.31466 3.49471C7.84864 3.27175 8.42136 3.15631 9.00002 3.155C9.84695 3.15538 10.6749 3.40586 11.38 3.875C11.3023 3.58948 11.2587 3.29577 11.25 3V2.685C10.7279 2.42835 10.1671 2.25942 9.59002 2.185V1.555C9.59002 1.37797 9.5197 1.20819 9.39452 1.08301C9.26934 0.957827 9.09956 0.887501 8.92252 0.887501C8.74549 0.887501 8.57571 0.957827 8.45053 1.08301C8.32535 1.20819 8.25502 1.37797 8.25502 1.555V2.21C6.96288 2.39228 5.78031 3.03587 4.92563 4.02197C4.07096 5.00806 3.60189 6.27007 3.60502 7.575V10.045C3.5428 10.8837 3.31329 11.7014 2.93002 12.45C2.58547 12.9912 2.17012 13.4839 1.69502 13.915C1.64169 13.9619 1.59895 14.0195 1.56963 14.0842C1.54032 14.1488 1.52511 14.219 1.52502 14.29V14.97C1.52502 15.1026 1.5777 15.2298 1.67147 15.3236C1.76524 15.4173 1.89242 15.47 2.02502 15.47H15.925C16.0576 15.47 16.1848 15.4173 16.2786 15.3236C16.3723 15.2298 16.425 15.1026 16.425 14.97V14.29C16.4249 14.219 16.4097 14.1488 16.3804 14.0842C16.3511 14.0195 16.3084 13.9619 16.255 13.915Z" fill="#666666" stroke="#666666" stroke-width="0.5"/>
<path d="M15 5.5C16.3807 5.5 17.5 4.38071 17.5 3C17.5 1.61929 16.3807 0.5 15 0.5C13.6193 0.5 12.5 1.61929 12.5 3C12.5 4.38071 13.6193 5.5 15 5.5Z" fill="#DC2626"/>
</g>
<defs>
<clipPath id="clip0_85_1708">
<rect width="18" height="19" fill="white"/>
</clipPath>
</defs>
</svg>
