<svg width="73" height="59" viewBox="0 0 73 59" fill="none" xmlns="http://www.w3.org/2000/svg">
<rect x="0.75" width="72" height="59" rx="13" fill="#FAFAFA"/>
<path d="M49.7669 33.1688L45.8276 26.3657L45.5524 28.3291L43.5862 27.656L47.5349 34.4753L47.5556 34.5099C47.8229 34.9398 47.964 35.4363 47.964 35.9463C47.964 37.4408 46.7549 38.6591 45.2606 38.6796L45.2436 38.6784L45.2003 38.68H39.8687V36.9596L36.0459 39.9702L39.8687 42.9808V41.2605H45.2224C45.2242 41.2605 45.2261 41.2605 45.2279 41.2605L45.2428 41.2603C48.1723 41.2494 50.5522 38.8696 50.5522 35.9463C50.5523 34.963 50.2809 34.0031 49.7669 33.1688Z" fill="#666666"/>
<path d="M28.2752 38.68C27.2988 38.68 26.3891 38.1561 25.9009 37.3131C25.4127 36.4701 25.4127 35.4225 25.9007 34.5794L28.3108 30.4175L29.7881 31.2874L29.1321 26.4745L24.5882 28.2254L26.0821 29.1051L23.6594 33.2893C22.7106 34.9282 22.7106 36.9644 23.6594 38.6033C24.6085 40.2422 26.3773 41.2605 28.2752 41.2605H35.1098L33.8157 39.9198L35.1098 38.68H28.2752Z" fill="#666666"/>
<path d="M30.7081 26.2776L34.3736 19.9471C34.8619 19.1042 35.7717 18.5805 36.7482 18.5805C37.7244 18.5805 38.6343 19.1042 39.1224 19.9472L41.1675 23.4791L39.6176 24.3432L44.1187 26.2008L44.8888 21.4049L43.427 22.2198L41.364 18.6571C40.4147 17.0181 38.6461 16 36.7482 16C34.85 16 33.0815 17.0181 32.1323 18.657L28.4668 24.9874L30.3927 24.3339L30.7081 26.2776Z" fill="#666666"/>
</svg>
