<svg width="63" height="52" viewBox="0 0 63 52" fill="none" xmlns="http://www.w3.org/2000/svg">
<path d="M48.25 45.404V32.002C48.25 22.531 40.545 14.826 31.075 14.826C21.605 14.826 13.899 22.531 13.899 32.002V45.405C12.342 45.657 11.151 47.004 11.151 48.632C11.151 50.44 12.617 51.905 14.424 51.905H47.724C49.532 51.905 50.997 50.439 50.997 48.632C50.998 47.003 49.808 45.656 48.25 45.404ZM31.075 19.433C38.005 19.433 43.643 25.071 43.643 32.001V45.358H18.506V32.002C18.506 25.071 24.144 19.433 31.075 19.433Z" fill="#1976D2"/>
<path d="M23.33 32.785C22.622 32.785 22.048 32.211 22.048 31.503C22.048 26.584 26.049 22.583 30.968 22.583C32.17 22.583 33.338 22.819 34.439 23.286C35.091 23.562 35.395 24.314 35.119 24.966C34.843 25.618 34.091 25.923 33.438 25.646C32.655 25.314 31.824 25.146 30.968 25.146C27.463 25.146 24.612 27.998 24.612 31.502C24.612 32.211 24.038 32.785 23.33 32.785Z" fill="#EE1D23"/>
<path d="M5.89703 33.991C4.76703 33.992 3.63603 34.028 2.50903 33.983C0.93903 33.92 0.00602978 33.004 2.97762e-05 31.599C-0.00597022 30.169 0.89503 29.256 2.48903 29.224C4.74703 29.179 7.00703 29.179 9.26603 29.223C10.914 29.255 11.805 30.1 11.838 31.516C11.872 32.984 10.94 33.914 9.28603 33.981C8.15803 34.027 7.02703 33.99 5.89703 33.991Z" fill="#1976D2"/>
<path d="M56.34 29.219C57.511 29.219 58.685 29.173 59.854 29.231C61.386 29.307 62.247 30.185 62.256 31.567C62.265 32.934 61.394 33.917 59.901 33.963C57.519 34.037 55.131 34.035 52.748 33.967C51.282 33.926 50.402 32.924 50.413 31.549C50.424 30.171 51.296 29.297 52.826 29.229C53.996 29.177 55.169 29.218 56.34 29.219Z" fill="#1976D2"/>
<path d="M54.139 10.742C54.137 10.739 54.134 10.736 54.132 10.734C54.097 10.153 53.839 9.59602 53.37 9.16102C52.855 8.68402 52.247 8.47202 51.633 8.52702C51.009 8.46002 50.383 8.76402 49.881 9.25702C48.157 10.95 46.446 12.659 44.782 14.41C44.25 14.97 44.014 15.635 44.048 16.274C44.046 16.278 44.044 16.281 44.042 16.285C44.044 16.288 44.047 16.291 44.049 16.293C44.084 16.874 44.342 17.431 44.811 17.866C45.326 18.343 45.934 18.555 46.548 18.5C47.172 18.567 47.798 18.263 48.3 17.77C50.024 16.077 51.735 14.368 53.399 12.617C53.931 12.057 54.167 11.392 54.134 10.753C54.135 10.749 54.137 10.746 54.139 10.742Z" fill="#1976D2"/>
<path d="M7.11502 11.473C7.11702 11.47 7.11902 11.467 7.12102 11.464C7.09202 10.883 7.28702 10.3 7.70602 9.81702C8.16602 9.28602 8.74602 9.00902 9.36202 8.99602C9.97502 8.86102 10.63 9.09402 11.184 9.52902C13.084 11.022 14.972 12.532 16.819 14.09C17.409 14.588 17.717 15.223 17.754 15.862C17.756 15.866 17.758 15.869 17.761 15.873C17.759 15.876 17.757 15.879 17.755 15.882C17.784 16.463 17.589 17.046 17.17 17.529C16.71 18.06 16.13 18.337 15.514 18.35C14.901 18.485 14.246 18.252 13.692 17.817C11.792 16.324 9.90402 14.814 8.05702 13.256C7.46702 12.758 7.15902 12.123 7.12202 11.484C7.12002 11.48 7.11802 11.476 7.11502 11.473Z" fill="#1976D2"/>
<path d="M33.439 6.08602C33.439 7.29602 33.478 8.50902 33.429 9.71702C33.37 11.199 32.432 12.091 31.063 12.059C29.744 12.029 28.856 11.166 28.828 9.71802C28.78 7.25602 28.776 4.79202 28.826 2.33002C28.853 0.982019 29.901 -0.00498109 31.126 1.89113e-05C32.362 0.00401891 33.37 0.974019 33.432 2.32902C33.489 3.57902 33.444 4.83302 33.444 6.08502C33.442 6.08602 33.439 6.08602 33.439 6.08602Z" fill="#1976D2"/>
</svg>
