<svg width="24" height="24" viewBox="0 0 24 24" fill="none" xmlns="http://www.w3.org/2000/svg">
<path d="M12 1.5C11.8309 1.4999 11.6667 1.55697 11.5341 1.66194C11.4015 1.76691 11.3082 1.91362 11.2695 2.07825L9.97798 7.56975C8.41186 7.35481 6.81778 7.63696 5.42058 8.37639C4.02338 9.11583 2.89358 10.2752 2.19051 11.6911C1.48745 13.1069 1.24662 14.7078 1.50198 16.2678C1.75735 17.8279 2.49602 19.2684 3.61382 20.3862C4.73161 21.504 6.17212 22.2426 7.73216 22.498C9.2922 22.7534 10.893 22.5125 12.3089 21.8095C13.7247 21.1064 14.8842 19.9766 15.6236 18.5794C16.363 17.1822 16.6452 15.5881 16.4302 14.022L21.9217 12.7305C22.0864 12.6918 22.2331 12.5985 22.338 12.4659C22.443 12.3333 22.5001 12.1691 22.5 12C22.4968 9.2162 21.3895 6.54733 19.4211 4.57889C17.4527 2.61044 14.7838 1.50318 12 1.5ZM8.46973 15.5303C8.61035 15.6709 8.80109 15.75 8.99998 15.75C9.05779 15.7501 9.11543 15.7436 9.17173 15.7305L11.9932 15.066C11.9808 15.6532 11.796 16.2238 11.462 16.7069C11.1279 17.1899 10.6593 17.5642 10.1143 17.7832C9.56936 18.0022 8.97204 18.0562 8.39662 17.9386C7.82119 17.8209 7.29302 17.5368 6.87771 17.1215C6.46241 16.7062 6.17829 16.178 6.06065 15.6026C5.943 15.0272 5.99703 14.4299 6.21602 13.8849C6.435 13.3399 6.80929 12.8713 7.29237 12.5373C7.77545 12.2032 8.34604 12.0185 8.93323 12.006L8.26948 14.8282C8.24031 14.9526 8.24339 15.0824 8.27844 15.2053C8.31348 15.3281 8.37933 15.44 8.46973 15.5303ZM10.0072 13.9928L11.7105 6.75525C13.1712 6.77844 14.5656 7.36904 15.5987 8.40207C16.6317 9.43509 17.2223 10.8295 17.2455 12.2902L10.0072 13.9928ZM15 15C15 16.1867 14.6481 17.3467 13.9888 18.3334C13.3295 19.3201 12.3924 20.0892 11.2961 20.5433C10.1997 20.9974 8.99333 21.1162 7.82944 20.8847C6.66556 20.6532 5.59646 20.0818 4.75734 19.2426C3.91823 18.4035 3.34678 17.3344 3.11527 16.1705C2.88376 15.0067 3.00258 13.8003 3.45671 12.7039C3.91083 11.6075 4.67987 10.6705 5.66656 10.0112C6.65326 9.35189 7.8133 9 8.99998 9C9.21146 9.00059 9.42275 9.01235 9.63298 9.03525L9.28498 10.5142C9.18973 10.5083 9.09523 10.5 8.99998 10.5C8.10997 10.5 7.23994 10.7639 6.49992 11.2584C5.7599 11.7529 5.18312 12.4557 4.84253 13.2779C4.50193 14.1002 4.41282 15.005 4.58645 15.8779C4.76008 16.7508 5.18867 17.5526 5.818 18.182C6.44734 18.8113 7.24916 19.2399 8.12208 19.4135C8.99499 19.5872 9.89979 19.4981 10.7221 19.1575C11.5443 18.8169 12.2471 18.2401 12.7416 17.5001C13.2361 16.76 13.5 15.89 13.5 15C13.5 14.9047 13.4917 14.8103 13.4857 14.715L14.9647 14.367C14.9876 14.5772 14.9994 14.7885 15 15ZM18.7275 11.94C18.6194 10.2071 17.8822 8.57328 16.6544 7.34554C15.4267 6.1178 13.7929 5.38062 12.06 5.2725L12.5895 3.01875C14.7671 3.16475 16.8178 4.09575 18.361 5.63899C19.9042 7.18223 20.8352 9.23292 20.9812 11.4105L18.7275 11.94Z" fill="#666666"/>
</svg>
